<svg id="Layer_1" data-name="Layer 1" xmlns="http://www.w3.org/2000/svg" viewBox="0 0 427.38 423.84"><defs><style>.cls-1{fill:#59cd90;}.cls-2{fill:#ee6352;}.cls-3{fill:#683fc6;}</style></defs><title>logo</title><g id="Logo"><path class="cls-1" d="M315.1,454.05a187.48,187.48,0,0,1-32.74,7.64V267.76H217V461.69a186.14,186.14,0,0,1-32.81-7.62V48.19q65.48-20.68,130.9,0Zm-33-219.42V73.8a186.13,186.13,0,0,0-65,0V234.63Z" transform="translate(-35.98 -37.85)"/><path class="cls-2" d="M338,61.47c1.48.56,2.81,1,4,1.55,61.12,28.7,100.39,75.43,116.46,141.26a209.19,209.19,0,0,1,4.85,30.79,4,4,0,0,1-1.27,3.57c-3.76,3.61-7.41,7.35-11.24,11.17,3.5,3.5,6.79,7,10.3,10.21a6.08,6.08,0,0,1,2.08,5.66c-2.27,25-8.36,49-19.19,71.7a202,202,0,0,1-73.93,84,180.77,180.77,0,0,1-30.18,16.07c-.57.24-1.17.39-1.93.64Zm31.5,204.3V382.43c.71-.57,1.23-.91,1.67-1.34,5.1-4.91,10.4-9.63,15.25-14.78q36.24-38.52,43.54-91a3.29,3.29,0,0,0-.77-2.31c-1.85-2-3.9-3.87-5.77-5.87a4.17,4.17,0,0,0-3.34-1.42c-16.15.05-32.3,0-48.45,0Zm-.05-31.94H412.7c3.06,0,6.47.79,9.08-.3s4.51-4.2,6.83-6.29a3.4,3.4,0,0,0,1.23-3.84c-.42-1.59-.52-3.27-.81-4.9-7.27-40.35-27-73.44-58-100.06-.45-.39-1-.71-1.62-1.2Z" transform="translate(-35.98 -37.85)"/><path class="cls-3" d="M161.3,61.48V438.06c-26.22-11.21-49.42-26.52-68.94-47.11C60.41,357.25,41.54,317.27,37.05,271,26.75,165,92.63,89,161.3,61.48Zm-31.51,55.66c-86.06,70.79-80.19,201.6,0,264.92Z" transform="translate(-35.98 -37.85)"/></g></svg>