<?xml version="1.0" encoding="utf-8"?>
<!-- Generator: Adobe Illustrator 24.0.2, SVG Export Plug-In . SVG Version: 6.00 Build 0)  -->
<svg version="1.1" id="Layer_1" xmlns="http://www.w3.org/2000/svg" xmlns:xlink="http://www.w3.org/1999/xlink" x="0px" y="0px"
	 viewBox="0 0 496 360" style="enable-background:new 0 0 496 360;" xml:space="preserve">
<style type="text/css">
	.st0{fill:#3FA7D6;}
	.st1{fill:#FDFFFF;}
	.st2{opacity:0.35;fill:#3FA7D6;}
	.st3{fill:#59CD90;}
	.st4{fill:#CD5C69;}
	.st5{fill:#683FC6;}
</style>
<path class="st0" d="M496,346.1c0,7.5-8.8,13.9-19.2,13.9H19.2C8.8,360,0,353.6,0,346.1V13.9C0,6.4,8.8,0,19.2,0h457.6
	C487.2,0,496,6.4,496,13.9V346.1z"/>
<path class="st1" d="M16,80v245.8c0,6.7,7.2,11.9,16.8,11.9h430.4c9.6,0,16.8-5.2,16.8-11.9V80H16z"/>
<path class="st2" d="M16,80v15.5h26.8l420.4,242.2c9.6,0,16.8-5.2,16.8-11.9V95.5V80H16z"/>
<path class="st1" d="M395.2,40c0,9.6-8,16-17.6,16H32c-9.6,0-8-6.4-8-16l0,0c0-9.6-1.6-16,8-16h345.6C387.2,24,395.2,30.4,395.2,40
	L395.2,40z"/>
<path class="st2" d="M24,40.8L24,40.8c0-9.6-1.6-16.8,8-16.8h345.6c9.6,0,17.6,7.2,17.6,16.8l0,0"/>
<circle class="st3" cx="426.4" cy="40.6" r="8.8"/>
<circle class="st4" cx="462.4" cy="40.6" r="8.8"/>
<path class="st0" d="M100.8,32l-0.8-0.8h-2.4c-0.8,0-0.8,0-0.8,0.8l-1.6,6.4l0,0l0,0L92.8,32c-0.8,0-0.8,0-1.6,0h-2.4
	C88,32,88,32,88,32.8L85.6,40l0,0l0,0L84,33.6c0-1.6,0-1.6-0.8-1.6h-2.4H80h-0.8h-2.4C76,32,76,32,76,32.8l-1.6,6.4l0,0l0,0L72,32.8
	c0-0.8-0.8-0.8-1.6-0.8h-1.6c-0.8,0-0.8,0-1.6,0.8l-1.6,6.4l0,0l0,0l-2.4-6.4c0-0.8,0-0.8-0.8-0.8H60h-0.8c0,0,0,0-0.8,0H56
	c0,0-0.8,0-0.8,0.8l-1.6,6.4l0,0l0,0l-2.4-6.4c0-0.8-0.8-0.8-1.6-0.8H48c-0.8,0-0.8,0-0.8,0.8l-2.4,6.4l0,0l0,0l-1.6-6.4
	C42.4,32,42.4,32,41.6,32h-2.4c0,0-0.8,0-0.8,0.8v0.8l4,13.6c0,0.8,0.8,0.8,0.8,0.8h2.4c0.8,0,0.8,0,0.8-0.8l2.4-7.2c0,0,0,0,0-0.8
	c0,0,0,0,0,0.8l2.4,6.4c0,0.8,0.8,0.8,0.8,0.8h2.4c0.8,0,0.8,0,0.8-0.8l4-12l3.2,12c0,0.8,0.8,0.8,0.8,0.8h2.4c0.8,0,0.8,0,0.8-0.8
	l3.2-6.4c0,0,0,0,0-0.8c0,0,0,0,0,0.8l2.4,6.4c0,0.8,0.8,0.8,0.8,0.8h2.4c0.8,0,0.8,0,0.8-0.8l4-12l3.2,12c0,0.8,0.8,0.8,0.8,0.8
	h2.4c0.8,0,0.8,0,0.8-0.8l3.2-6.4c0,0,0,0,0-0.8c0,0,0,0,0,0.8l2.4,6.4c0,0.8,0.8,0.8,0.8,0.8H96c0.8,0,0.8,0,0.8-0.8l4-13.6
	C101.6,32.8,101.6,32,100.8,32z"/>
<g>
	<circle class="st5" cx="111.2" cy="166" r="23.2"/>
	<circle class="st5" cx="384.8" cy="166" r="23.2"/>
	<path class="st5" d="M304.8,278c-6.4,0-12-5.6-12-12c0-24.8-20-44.8-44.8-44.8s-44.8,20-44.8,44.8c0,6.4-5.6,12-12,12
		s-12-5.6-12-12c0-38.4,31.2-68.8,68.8-68.8s68.8,31.2,68.8,68.8C316.8,272.4,312,278,304.8,278z"/>
</g>
</svg>
