<?xml version="1.0" encoding="utf-8"?>
<!-- Generator: Adobe Illustrator 24.0.2, SVG Export Plug-In . SVG Version: 6.00 Build 0)  -->
<svg version="1.1" id="Layer_1" xmlns="http://www.w3.org/2000/svg" xmlns:xlink="http://www.w3.org/1999/xlink" x="0px" y="0px"
	 viewBox="0 0 427.4 423.8" style="enable-background:new 0 0 427.4 423.8;" xml:space="preserve">
<style type="text/css">
	.st0{fill:#FFFFFF;}
</style>
<title>logo</title>
<g id="Logo">
	<path class="st0" d="M279.1,416.2c-10.7,3.5-21.6,6.1-32.7,7.6V229.9H181v193.9c-11.1-1.5-22.1-4.1-32.8-7.6V10.3
		c43.7-13.8,87.3-13.8,130.9,0L279.1,416.2z M246.1,196.8V36c-21.5-3.8-43.5-3.8-65,0v160.8H246.1z"/>
	<path class="st0" d="M302,23.6c1.5,0.6,2.8,1,4,1.5c61.1,28.7,100.4,75.4,116.5,141.3c2.4,10.1,4,20.4,4.9,30.8
		c0.2,1.3-0.3,2.7-1.3,3.6c-3.8,3.6-7.4,7.4-11.2,11.2c3.5,3.5,6.8,7,10.3,10.2c1.6,1.4,2.4,3.5,2.1,5.7c-2.3,25-8.4,49-19.2,71.7
		c-16.2,34.4-41.9,63.5-73.9,84c-9.5,6.3-19.6,11.7-30.2,16.1c-0.6,0.2-1.2,0.4-1.9,0.6L302,23.6z M333.5,227.9v116.7
		c0.7-0.6,1.2-0.9,1.7-1.3c5.1-4.9,10.4-9.6,15.2-14.8c24.2-25.7,38.7-56,43.5-91c0-0.8-0.2-1.7-0.8-2.3c-1.9-2-3.9-3.9-5.8-5.9
		c-0.8-1-2.1-1.5-3.3-1.4c-16.1,0-32.3,0-48.5,0L333.5,227.9z M333.5,196h43.2c3.1,0,6.5,0.8,9.1-0.3s4.5-4.2,6.8-6.3
		c1.2-0.9,1.7-2.4,1.2-3.8c-0.4-1.6-0.5-3.3-0.8-4.9c-7.3-40.4-27-73.4-58-100.1c-0.5-0.4-1-0.7-1.6-1.2L333.5,196z"/>
	<path class="st0" d="M125.3,23.6v376.6c-26.2-11.2-49.4-26.5-68.9-47.1c-32-33.7-50.8-73.7-55.3-120
		C-9.2,127.2,56.6,51.2,125.3,23.6z M93.8,79.3c-86.1,70.8-80.2,201.6,0,264.9V79.3z"/>
</g>
</svg>
